<?xml version="1.0" encoding="UTF-8" standalone="no"?>
<svg
   viewBox="0 0 564.14 454.42"
   version="1.1"
   id="svg736"
   sodipodi:docname="panelsunpower_new.svg"
   inkscape:version="1.2.2 (732a01da63, 2022-12-09)"
   xmlns:inkscape="http://www.inkscape.org/namespaces/inkscape"
   xmlns:sodipodi="http://sodipodi.sourceforge.net/DTD/sodipodi-0.dtd"
   xmlns="http://www.w3.org/2000/svg"
   xmlns:svg="http://www.w3.org/2000/svg">
  <defs
     id="defs740" />
  <sodipodi:namedview
     id="namedview738"
     pagecolor="#ffffff"
     bordercolor="#000000"
     borderopacity="0.25"
     inkscape:showpageshadow="2"
     inkscape:pageopacity="0.0"
     inkscape:pagecheckerboard="0"
     inkscape:deskcolor="#d1d1d1"
     showgrid="false"
     inkscape:zoom="1.0729879"
     inkscape:cx="295.90267"
     inkscape:cy="210.62678"
     inkscape:window-width="1366"
     inkscape:window-height="745"
     inkscape:window-x="-8"
     inkscape:window-y="-8"
     inkscape:window-maximized="1"
     inkscape:current-layer="svg736" />
  <title
     id="title372">panelsunpower_new</title>
  <g
     id="sfondogrigio"
     style="fill:#202124;fill-opacity:1">
    <rect
       width="564.14"
       height="454.42"
       style="fill:#202124;fill-opacity:1"
       id="rect374" />
  </g>
  <g
     id="panelvertical">
    <g
       id="panel1">
      <g
         id="g404">
        <rect
           id="colorblu1"
           x="34.95"
           y="33.38"
           width="104.78"
           height="134.28"
           style="fill:#000000;stroke:#231f20;stroke-miterlimit:10" />
        <line
           x1="34.95"
           y1="152.74"
           x2="139.73"
           y2="152.74"
           style="fill:#fff;stroke:#2a7296;stroke-miterlimit:10;stroke-opacity:1"
           id="line378" />
        <line
           x1="34.95"
           y1="137.82"
           x2="139.73"
           y2="137.82"
           style="fill:#fff;stroke:#2a7296;stroke-miterlimit:10;stroke-opacity:1"
           id="line380" />
        <line
           x1="34.95"
           y1="122.9"
           x2="139.73"
           y2="122.9"
           style="fill:#fff;stroke:#2a7296;stroke-miterlimit:10;stroke-opacity:1"
           id="line382" />
        <line
           x1="34.95"
           y1="107.98"
           x2="139.73"
           y2="107.98"
           style="fill:#fff;stroke:#2a7296;stroke-miterlimit:10;stroke-opacity:1"
           id="line384" />
        <line
           x1="34.95"
           y1="93.06"
           x2="139.73"
           y2="93.06"
           style="fill:#fff;stroke:#2a7296;stroke-miterlimit:10;stroke-opacity:1"
           id="line386" />
        <line
           x1="34.95"
           y1="78.14"
           x2="139.73"
           y2="78.14"
           style="fill:#fff;stroke:#2a7296;stroke-miterlimit:10;stroke-opacity:1"
           id="line388" />
        <line
           x1="34.95"
           y1="63.22"
           x2="139.73"
           y2="63.22"
           style="fill:#fff;stroke:#2a7296;stroke-miterlimit:10;stroke-opacity:1"
           id="line390" />
        <line
           x1="34.95"
           y1="48.3"
           x2="139.73"
           y2="48.3"
           style="fill:#fff;stroke:#2a7296;stroke-miterlimit:10;stroke-opacity:1"
           id="line392" />
        <line
           x1="122.27"
           y1="33.38"
           x2="122.27"
           y2="167.66"
           style="fill:#fff;stroke:#2a7296;stroke-miterlimit:10;stroke-opacity:1"
           id="line394" />
        <line
           x1="104.81"
           y1="33.38"
           x2="104.81"
           y2="167.66"
           style="fill:#fff;stroke:#2a7296;stroke-miterlimit:10;stroke-opacity:1"
           id="line396" />
        <line
           x1="87.34"
           y1="33.38"
           x2="87.34"
           y2="167.66"
           style="fill:#fff;stroke:#2a7296;stroke-miterlimit:10;stroke-opacity:1"
           id="line398" />
        <line
           x1="69.88"
           y1="33.38"
           x2="69.88"
           y2="167.66"
           style="fill:#fff;stroke:#2a7296;stroke-miterlimit:10;stroke-opacity:1"
           id="line400" />
        <line
           x1="52.419998"
           y1="33.380001"
           x2="52.419998"
           y2="167.66"
           style="display:inline;fill:none;fill-opacity:1;stroke:#2a7296;stroke-miterlimit:10;stroke-opacity:1"
           id="line402"
           inkscape:label="line402" />
      </g>
      <rect
         x="35.07"
         y="167.54"
         width="104.7"
         height="36.16"
         style="fill:#000000"
         id="rect406" />
      <rect
         x="35.07"
         y="33.26"
         width="104.7"
         height="170.44"
         style="fill: none;stroke: #fff;stroke-miterlimit: 10;stroke-width: 3px"
         id="rect408" />
    </g>
    <g
       id="panel2">
      <g
         id="g438">
        <rect
           id="colorblu2"
           x="426.96"
           y="33.55"
           width="104.78"
           height="134.28"
           style="fill:#000000;stroke:#231f20;stroke-miterlimit:10" />
        <line
           x1="426.96"
           y1="152.91"
           x2="531.74"
           y2="152.91"
           style="fill:#fff;stroke:#2a7296;stroke-miterlimit:10;stroke-opacity:1"
           id="line412" />
        <line
           x1="426.96"
           y1="137.99"
           x2="531.74"
           y2="137.99"
           style="fill:#fff;stroke:#2a7296;stroke-miterlimit:10;stroke-opacity:1"
           id="line414" />
        <line
           x1="426.96"
           y1="123.07"
           x2="531.74"
           y2="123.07"
           style="fill:#fff;stroke:#2a7296;stroke-miterlimit:10;stroke-opacity:1"
           id="line416" />
        <line
           x1="426.96"
           y1="108.15"
           x2="531.74"
           y2="108.15"
           style="fill:#fff;stroke:#2a7296;stroke-miterlimit:10;stroke-opacity:1"
           id="line418" />
        <line
           x1="426.96"
           y1="93.23"
           x2="531.74"
           y2="93.23"
           style="fill:#fff;stroke:#2a7296;stroke-miterlimit:10;stroke-opacity:1"
           id="line420" />
        <line
           x1="426.96"
           y1="78.31"
           x2="531.74"
           y2="78.31"
           style="fill:#fff;stroke:#2a7296;stroke-miterlimit:10;stroke-opacity:1"
           id="line422" />
        <line
           x1="426.96"
           y1="63.39"
           x2="531.74"
           y2="63.39"
           style="fill:#fff;stroke:#2a7296;stroke-miterlimit:10;stroke-opacity:1"
           id="line424" />
        <line
           x1="426.96"
           y1="48.47"
           x2="531.74"
           y2="48.47"
           style="fill:#fff;stroke:#2a7296;stroke-miterlimit:10;stroke-opacity:1"
           id="line426" />
        <line
           x1="514.28"
           y1="33.55"
           x2="514.28"
           y2="167.83"
           style="fill:#fff;stroke:#2a7296;stroke-miterlimit:10;stroke-opacity:1"
           id="line428" />
        <line
           x1="496.82"
           y1="33.55"
           x2="496.82"
           y2="167.83"
           style="fill:#fff;stroke:#2a7296;stroke-miterlimit:10;stroke-opacity:1"
           id="line430" />
        <line
           x1="479.35"
           y1="33.55"
           x2="479.35"
           y2="167.83"
           style="fill:#fff;stroke:#2a7296;stroke-miterlimit:10;stroke-opacity:1"
           id="line432" />
        <line
           x1="461.89"
           y1="33.55"
           x2="461.89"
           y2="167.83"
           style="fill:#fff;stroke:#2a7296;stroke-miterlimit:10;stroke-opacity:1"
           id="line434" />
        <line
           x1="444.43"
           y1="33.55"
           x2="444.43"
           y2="167.83"
           style="fill:#2b7296;stroke:#2a7296;stroke-miterlimit:10;stroke-opacity:1"
           id="line436" />
      </g>
      <rect
         x="427.08"
         y="167.4"
         width="104.7"
         height="36.16"
         style="fill:#000000"
         id="rect440" />
      <rect
         x="427.08"
         y="33.12"
         width="104.7"
         height="170.44"
         style="fill: none;stroke: #fff;stroke-miterlimit: 10;stroke-width: 3px"
         id="rect442" />
    </g>
  </g>
  <g
     id="panelorizontal">
    <g
       id="panel5">
      <g
         id="g471">
        <rect
           id="colorblu5"
           x="29.47"
           y="221.13"
           width="166.01"
           height="69.04"
           style="fill:#000000;stroke:#231f20;stroke-miterlimit:10" />
        <line
           x1="177.07"
           y1="289.97"
           x2="177.07"
           y2="221.13"
           style="fill:#fff;stroke:#2a7296;stroke-miterlimit:10;stroke-opacity:1"
           id="line447" />
        <line
           x1="158.62"
           y1="289.69"
           x2="158.62"
           y2="221.13"
           style="fill:#fff;stroke:#2a7296;stroke-miterlimit:10;stroke-opacity:1"
           id="line449" />
        <line
           x1="140.17"
           y1="289.97"
           x2="140.17"
           y2="221.13"
           style="fill:#fff;stroke:#2a7296;stroke-miterlimit:10;stroke-opacity:1"
           id="line451" />
        <line
           x1="121.72"
           y1="289.69"
           x2="121.72"
           y2="221.13"
           style="fill:#fff;stroke:#2a7296;stroke-miterlimit:10;stroke-opacity:1"
           id="line453" />
        <line
           x1="103.27"
           y1="290.27"
           x2="103.27"
           y2="221.13"
           style="fill:#fff;stroke:#2a7296;stroke-miterlimit:10;stroke-opacity:1"
           id="line455" />
        <line
           x1="84.82"
           y1="289.69"
           x2="84.82"
           y2="221.13"
           style="fill:#fff;stroke:#2a7296;stroke-miterlimit:10;stroke-opacity:1"
           id="line457" />
        <line
           x1="66.37"
           y1="290.27"
           x2="66.37"
           y2="221.13"
           style="fill:#fff;stroke:#2a7296;stroke-miterlimit:10;stroke-opacity:1"
           id="line459" />
        <line
           x1="47.92"
           y1="290.17"
           x2="47.92"
           y2="221.13"
           style="fill:#fff;stroke:#2a7296;stroke-miterlimit:10;stroke-opacity:1"
           id="line461" />
        <line
           x1="29.47"
           y1="234.97"
           x2="195.52"
           y2="234.97"
           style="fill:#fff;stroke:#2a7296;stroke-miterlimit:10;stroke-opacity:1"
           id="line463" />
        <line
           x1="29.47"
           y1="248.8"
           x2="195.52"
           y2="248.8"
           style="fill:#fff;stroke:#2a7296;stroke-miterlimit:10;stroke-opacity:1"
           id="line465" />
        <line
           x1="29.47"
           y1="262.64"
           x2="195.52"
           y2="262.64"
           style="fill:#fff;stroke:#2a7296;stroke-miterlimit:10;stroke-opacity:1"
           id="line467" />
        <line
           x1="29.47"
           y1="276.48"
           x2="195.52"
           y2="276.48"
           style="fill:#fff;stroke:#2a7296;stroke-miterlimit:10;stroke-opacity:1"
           id="line469" />
      </g>
      <rect
         x="29.37"
         y="290.26"
         width="166.09"
         height="32.4"
         style="fill:#000000"
         id="rect473" />
      <rect
         x="29.37"
         y="221.31"
         width="166.09"
         height="101.35"
         style="fill: none;stroke: #fff;stroke-miterlimit: 10;stroke-width: 3px"
         id="rect475" />
    </g>
    <g
       id="panel4">
      <g
         id="g503">
        <rect
           id="colorblu4"
           x="199.04"
           y="221.36"
           width="166.01"
           height="69.04"
           style="fill:#000000;stroke:#231f20;stroke-miterlimit:10" />
        <line
           x1="346.65"
           y1="290.2"
           x2="346.65"
           y2="221.36"
           style="fill:#fff;stroke:#2a7296;stroke-miterlimit:10;stroke-opacity:1"
           id="line479" />
        <line
           x1="328.2"
           y1="289.92"
           x2="328.2"
           y2="221.36"
           style="fill:#fff;stroke:#2a7296;stroke-miterlimit:10;stroke-opacity:1"
           id="line481" />
        <line
           x1="309.75"
           y1="290.2"
           x2="309.75"
           y2="221.36"
           style="fill:#fff;stroke:#2a7296;stroke-miterlimit:10;stroke-opacity:1"
           id="line483" />
        <line
           x1="291.3"
           y1="289.92"
           x2="291.3"
           y2="221.36"
           style="fill:#fff;stroke:#2a7296;stroke-miterlimit:10;stroke-opacity:1"
           id="line485" />
        <line
           x1="272.85"
           y1="290.5"
           x2="272.85"
           y2="221.36"
           style="fill:#fff;stroke:#2a7296;stroke-miterlimit:10;stroke-opacity:1"
           id="line487" />
        <line
           x1="254.4"
           y1="289.92"
           x2="254.4"
           y2="221.36"
           style="fill:#fff;stroke:#2a7296;stroke-miterlimit:10;stroke-opacity:1"
           id="line489" />
        <line
           x1="235.95"
           y1="290.5"
           x2="235.95"
           y2="221.36"
           style="fill:#fff;stroke:#2a7296;stroke-miterlimit:10;stroke-opacity:1"
           id="line491" />
        <line
           x1="217.5"
           y1="290.4"
           x2="217.5"
           y2="221.36"
           style="fill:#fff;stroke:#2a7296;stroke-miterlimit:10;stroke-opacity:1"
           id="line493" />
        <line
           x1="199.04"
           y1="235.2"
           x2="365.1"
           y2="235.2"
           style="fill:#fff;stroke:#2a7296;stroke-miterlimit:10;stroke-opacity:1"
           id="line495" />
        <line
           x1="199.04"
           y1="249.03"
           x2="365.1"
           y2="249.03"
           style="fill:#fff;stroke:#2a7296;stroke-miterlimit:10;stroke-opacity:1"
           id="line497" />
        <line
           x1="199.04"
           y1="262.87"
           x2="365.1"
           y2="262.87"
           style="fill:#fff;stroke:#2a7296;stroke-miterlimit:10;stroke-opacity:1"
           id="line499" />
        <line
           x1="199.04"
           y1="276.71"
           x2="365.1"
           y2="276.71"
           style="fill:#fff;stroke:#2a7296;stroke-miterlimit:10;stroke-opacity:1"
           id="line501" />
      </g>
      <rect
         x="199.45"
         y="290.06"
         width="166.09"
         height="32.4"
         style="fill:#000000"
         id="rect505" />
      <rect
         x="199.45"
         y="221.11"
         width="166.09"
         height="101.35"
         style="fill: none;stroke: #fff;stroke-miterlimit: 10;stroke-width: 3px"
         id="rect507" />
    </g>
    <g
       id="panel3">
      <g
         id="g535">
        <rect
           id="colorblu3"
           x="369.42"
           y="221.22"
           width="166.01"
           height="69.04"
           style="fill:#000000;stroke:#231f20;stroke-miterlimit:10" />
        <line
           x1="517.02"
           y1="290.06"
           x2="517.02"
           y2="221.22"
           style="fill:#fff;stroke:#2a7296;stroke-miterlimit:10;stroke-opacity:1"
           id="line511" />
        <line
           x1="498.57"
           y1="289.78"
           x2="498.57"
           y2="221.22"
           style="fill:#fff;stroke:#2a7296;stroke-miterlimit:10;stroke-opacity:1"
           id="line513" />
        <line
           x1="480.12"
           y1="290.06"
           x2="480.12"
           y2="221.22"
           style="fill:#fff;stroke:#2a7296;stroke-miterlimit:10;stroke-opacity:1"
           id="line515" />
        <line
           x1="461.67"
           y1="289.78"
           x2="461.67"
           y2="221.22"
           style="fill:#fff;stroke:#2a7296;stroke-miterlimit:10;stroke-opacity:1"
           id="line517" />
        <line
           x1="443.22"
           y1="290.36"
           x2="443.22"
           y2="221.22"
           style="fill:#fff;stroke:#2a7296;stroke-miterlimit:10;stroke-opacity:1"
           id="line519" />
        <line
           x1="424.77"
           y1="289.78"
           x2="424.77"
           y2="221.22"
           style="fill:#fff;stroke:#2a7296;stroke-miterlimit:10;stroke-opacity:1"
           id="line521" />
        <line
           x1="406.32"
           y1="290.36"
           x2="406.32"
           y2="221.22"
           style="fill:#fff;stroke:#2a7296;stroke-miterlimit:10;stroke-opacity:1"
           id="line523" />
        <line
           x1="387.87"
           y1="290.26"
           x2="387.87"
           y2="221.22"
           style="fill:#fff;stroke:#2a7296;stroke-miterlimit:10;stroke-opacity:1"
           id="line525" />
        <line
           x1="369.42"
           y1="235.06"
           x2="535.47"
           y2="235.06"
           style="fill:#fff;stroke:#2a7296;stroke-miterlimit:10;stroke-opacity:1"
           id="line527" />
        <line
           x1="369.42"
           y1="248.89"
           x2="535.47"
           y2="248.89"
           style="fill:#fff;stroke:#2a7296;stroke-miterlimit:10;stroke-opacity:1"
           id="line529" />
        <line
           x1="369.42"
           y1="262.73"
           x2="535.47"
           y2="262.73"
           style="fill:#fff;stroke:#2a7296;stroke-miterlimit:10;stroke-opacity:1"
           id="line531" />
        <line
           x1="369.42"
           y1="276.57"
           x2="535.47"
           y2="276.57"
           style="fill:#fff;stroke:#2a7296;stroke-miterlimit:10;stroke-opacity:1"
           id="line533" />
      </g>
      <rect
         x="369.38"
         y="290.35"
         width="166.09"
         height="32.4"
         style="fill:#000000"
         id="rect537" />
      <rect
         x="369.38"
         y="221.39"
         width="166.09"
         height="101.35"
         style="fill: none;stroke: #fff;stroke-miterlimit: 10;stroke-width: 3px"
         id="rect539" />
    </g>
    <g
       id="panel6">
      <g
         id="g567">
        <rect
           id="colorblu6"
           x="29.39"
           y="326.68"
           width="166.01"
           height="69.04"
           style="fill:#000000;stroke:#231f20;stroke-miterlimit:10" />
        <line
           x1="176.99"
           y1="395.52"
           x2="176.99"
           y2="326.68"
           style="fill:#fff;stroke:#2a7296;stroke-miterlimit:10;stroke-opacity:1"
           id="line543" />
        <line
           x1="158.54"
           y1="395.24"
           x2="158.54"
           y2="326.68"
           style="fill:#fff;stroke:#2a7296;stroke-miterlimit:10;stroke-opacity:1"
           id="line545" />
        <line
           x1="140.09"
           y1="395.52"
           x2="140.09"
           y2="326.68"
           style="fill:#fff;stroke:#2a7296;stroke-miterlimit:10;stroke-opacity:1"
           id="line547" />
        <line
           x1="121.64"
           y1="395.24"
           x2="121.64"
           y2="326.68"
           style="fill:#fff;stroke:#2a7296;stroke-miterlimit:10;stroke-opacity:1"
           id="line549" />
        <line
           x1="103.19"
           y1="395.82"
           x2="103.19"
           y2="326.68"
           style="fill:#fff;stroke:#2a7296;stroke-miterlimit:10;stroke-opacity:1"
           id="line551" />
        <line
           x1="84.74"
           y1="395.24"
           x2="84.74"
           y2="326.68"
           style="fill:#fff;stroke:#2a7296;stroke-miterlimit:10;stroke-opacity:1"
           id="line553" />
        <line
           x1="66.29"
           y1="395.82"
           x2="66.29"
           y2="326.68"
           style="fill:#fff;stroke:#2a7296;stroke-miterlimit:10;stroke-opacity:1"
           id="line555" />
        <line
           x1="47.84"
           y1="395.72"
           x2="47.84"
           y2="326.68"
           style="fill:#fff;stroke:#2a7296;stroke-miterlimit:10;stroke-opacity:1"
           id="line557" />
        <line
           x1="29.39"
           y1="340.51"
           x2="195.44"
           y2="340.51"
           style="fill:#fff;stroke:#2a7296;stroke-miterlimit:10;stroke-opacity:1"
           id="line559" />
        <line
           x1="29.39"
           y1="354.35"
           x2="195.44"
           y2="354.35"
           style="fill:#fff;stroke:#2a7296;stroke-miterlimit:10;stroke-opacity:1"
           id="line561" />
        <line
           x1="29.39"
           y1="368.19"
           x2="195.44"
           y2="368.19"
           style="fill:#fff;stroke:#2a7296;stroke-miterlimit:10;stroke-opacity:1"
           id="line563" />
        <line
           x1="29.39"
           y1="382.02"
           x2="195.44"
           y2="382.02"
           style="fill:#fff;stroke:#2a7296;stroke-miterlimit:10;stroke-opacity:1"
           id="line565" />
      </g>
      <rect
         x="29.45"
         y="395.81"
         width="166.09"
         height="32.4"
         style="fill:#000000"
         id="rect569" />
      <rect
         x="29.45"
         y="326.85"
         width="166.09"
         height="101.35"
         style="fill: none;stroke: #fff;stroke-miterlimit: 10;stroke-width: 3px"
         id="rect571" />
    </g>
    <g
       id="panel7">
      <g
         id="g599">
        <rect
           id="colorblu7"
           x="199.56"
           y="326.76"
           width="166.01"
           height="69.04"
           style="fill:#000000;stroke:#231f20;stroke-miterlimit:10" />
        <line
           x1="347.16"
           y1="395.6"
           x2="347.16"
           y2="326.76"
           style="fill:#fff;stroke:#2a7296;stroke-miterlimit:10;stroke-opacity:1"
           id="line575" />
        <line
           x1="328.71"
           y1="395.32"
           x2="328.71"
           y2="326.76"
           style="fill:#fff;stroke:#2a7296;stroke-miterlimit:10;stroke-opacity:1"
           id="line577" />
        <line
           x1="310.26"
           y1="395.6"
           x2="310.26"
           y2="326.76"
           style="fill:#fff;stroke:#2a7296;stroke-miterlimit:10;stroke-opacity:1"
           id="line579" />
        <line
           x1="291.81"
           y1="395.32"
           x2="291.81"
           y2="326.76"
           style="fill:#fff;stroke:#2a7296;stroke-miterlimit:10;stroke-opacity:1"
           id="line581" />
        <line
           x1="273.36"
           y1="395.9"
           x2="273.36"
           y2="326.76"
           style="fill:#fff;stroke:#2a7296;stroke-miterlimit:10;stroke-opacity:1"
           id="line583" />
        <line
           x1="254.91"
           y1="395.32"
           x2="254.91"
           y2="326.76"
           style="fill:#fff;stroke:#2a7296;stroke-miterlimit:10;stroke-opacity:1"
           id="line585" />
        <line
           x1="236.46"
           y1="395.9"
           x2="236.46"
           y2="326.76"
           style="fill:#fff;stroke:#2a7296;stroke-miterlimit:10;stroke-opacity:1"
           id="line587" />
        <line
           x1="218.01"
           y1="395.8"
           x2="218.01"
           y2="326.76"
           style="fill:#fff;stroke:#2a7296;stroke-miterlimit:10;stroke-opacity:1"
           id="line589" />
        <line
           x1="199.56"
           y1="340.6"
           x2="365.61"
           y2="340.6"
           style="fill:#fff;stroke:#2a7296;stroke-miterlimit:10;stroke-opacity:1"
           id="line591" />
        <line
           x1="199.56"
           y1="354.43"
           x2="365.61"
           y2="354.43"
           style="fill:#fff;stroke:#2a7296;stroke-miterlimit:10;stroke-opacity:1"
           id="line593" />
        <line
           x1="199.56"
           y1="368.27"
           x2="365.61"
           y2="368.27"
           style="fill:#fff;stroke:#2a7296;stroke-miterlimit:10;stroke-opacity:1"
           id="line595" />
        <line
           x1="199.56"
           y1="382.1"
           x2="365.61"
           y2="382.1"
           style="fill:#fff;stroke:#2a7296;stroke-miterlimit:10;stroke-opacity:1"
           id="line597" />
      </g>
      <rect
         x="199.53"
         y="395.61"
         width="166.09"
         height="32.4"
         style="fill:#000000"
         id="rect601" />
      <rect
         x="199.53"
         y="326.65"
         width="166.09"
         height="101.35"
         style="fill: none;stroke: #fff;stroke-miterlimit: 10;stroke-width: 3px"
         id="rect603" />
    </g>
    <g
       id="panel8">
      <g
         id="g631">
        <rect
           id="colorblu8"
           x="369.4"
           y="326.71"
           width="166.01"
           height="69.04"
           style="fill:#000000;stroke:#231f20;stroke-miterlimit:10" />
        <line
           x1="517"
           y1="395.55"
           x2="517"
           y2="326.71"
           style="fill:#fff;stroke:#2a7296;stroke-miterlimit:10;stroke-opacity:1"
           id="line607" />
        <line
           x1="498.55"
           y1="395.27"
           x2="498.55"
           y2="326.71"
           style="fill:#fff;stroke:#2a7296;stroke-miterlimit:10;stroke-opacity:1"
           id="line609" />
        <line
           x1="480.1"
           y1="395.55"
           x2="480.1"
           y2="326.71"
           style="fill:#fff;stroke:#2a7296;stroke-miterlimit:10;stroke-opacity:1"
           id="line611" />
        <line
           x1="461.65"
           y1="395.27"
           x2="461.65"
           y2="326.71"
           style="fill:#fff;stroke:#2a7296;stroke-miterlimit:10;stroke-opacity:1"
           id="line613" />
        <line
           x1="443.2"
           y1="395.85"
           x2="443.2"
           y2="326.71"
           style="fill:#fff;stroke:#2a7296;stroke-miterlimit:10;stroke-opacity:1"
           id="line615" />
        <line
           x1="424.75"
           y1="395.27"
           x2="424.75"
           y2="326.71"
           style="fill:#fff;stroke:#2a7296;stroke-miterlimit:10;stroke-opacity:1"
           id="line617" />
        <line
           x1="406.3"
           y1="395.85"
           x2="406.3"
           y2="326.71"
           style="fill:#fff;stroke:#2a7296;stroke-miterlimit:10;stroke-opacity:1"
           id="line619" />
        <line
           x1="387.85"
           y1="395.75"
           x2="387.85"
           y2="326.71"
           style="fill:#fff;stroke:#2a7296;stroke-miterlimit:10;stroke-opacity:1"
           id="line621" />
        <line
           x1="369.4"
           y1="340.55"
           x2="535.45"
           y2="340.55"
           style="fill:#fff;stroke:#2a7296;stroke-miterlimit:10;stroke-opacity:1"
           id="line623" />
        <line
           x1="369.4"
           y1="354.38"
           x2="535.45"
           y2="354.38"
           style="fill:#fff;stroke:#2a7296;stroke-miterlimit:10;stroke-opacity:1"
           id="line625" />
        <line
           x1="369.4"
           y1="368.22"
           x2="535.45"
           y2="368.22"
           style="fill:#fff;stroke:#2a7296;stroke-miterlimit:10;stroke-opacity:1"
           id="line627" />
        <line
           x1="369.4"
           y1="382.06"
           x2="535.45"
           y2="382.06"
           style="fill:#fff;stroke:#2a7296;stroke-miterlimit:10;stroke-opacity:1"
           id="line629" />
      </g>
      <rect
         x="369.46"
         y="395.89"
         width="166.09"
         height="32.4"
         style="fill:#000000"
         id="rect633" />
      <rect
         x="369.46"
         y="326.94"
         width="166.09"
         height="101.35"
         style="fill: none;stroke: #fff;stroke-miterlimit: 10;stroke-width: 3px"
         id="rect635" />
    </g>
  </g>
  <g
     id="nomepanel">
    <g
       id="g649">
      <path
         d="M75.56,286.93h3.9V277h-3v-1.14a9.83,9.83,0,0,0,3.47-1h1.31v12h3.52v1.46H75.56Z"
         transform="translate(-17.34 -94.46)"
         style="fill: #fff"
         id="path639" />
      <path
         d="M90.84,286.84a1.72,1.72,0,1,1,1.72,1.8A1.71,1.71,0,0,1,90.84,286.84Z"
         transform="translate(-17.34 -94.46)"
         style="fill: #fff"
         id="path641" />
      <path
         d="M101,286.93h3.89V277h-3v-1.14a9.89,9.89,0,0,0,3.47-1h1.31v12h3.51v1.46H101Z"
         transform="translate(-17.34 -94.46)"
         style="fill: #fff"
         id="path643" />
      <path
         d="M116.24,286.84a1.72,1.72,0,1,1,1.71,1.8A1.71,1.71,0,0,1,116.24,286.84Z"
         transform="translate(-17.34 -94.46)"
         style="fill: #fff"
         id="path645" />
      <path
         d="M126.35,286.93h3.9V277h-3v-1.14a9.83,9.83,0,0,0,3.47-1H132v12h3.52v1.46h-9.17Z"
         transform="translate(-17.34 -94.46)"
         style="fill: #fff"
         id="path647" />
    </g>
    <g
       id="g661">
      <path
         d="M467.17,286.81h3.9V276.9h-3v-1.14a9.83,9.83,0,0,0,3.47-1h1.31v12h3.52v1.46h-9.17Z"
         transform="translate(-17.34 -94.46)"
         style="fill: #fff"
         id="path651" />
      <path
         d="M482.45,286.72a1.72,1.72,0,1,1,1.72,1.8A1.71,1.71,0,0,1,482.45,286.72Z"
         transform="translate(-17.34 -94.46)"
         style="fill: #fff"
         id="path653" />
      <path
         d="M492.57,286.81h3.89V276.9h-3v-1.14a9.89,9.89,0,0,0,3.47-1h1.31v12h3.51v1.46h-9.16Z"
         transform="translate(-17.34 -94.46)"
         style="fill: #fff"
         id="path655" />
      <path
         d="M507.85,286.72a1.72,1.72,0,1,1,1.71,1.8A1.71,1.71,0,0,1,507.85,286.72Z"
         transform="translate(-17.34 -94.46)"
         style="fill: #fff"
         id="path657" />
      <path
         d="M517.46,287.23c4.57-4,7.06-6.41,7.06-8.65,0-1.55-.93-2.63-2.92-2.63a4.62,4.62,0,0,0-3.23,1.61l-1-1a6,6,0,0,1,4.46-2.06c2.71,0,4.41,1.59,4.41,4s-2.54,5.06-6.2,8.38c.84-.06,1.71-.1,2.51-.1H527v1.5h-9.5Z"
         transform="translate(-17.34 -94.46)"
         style="fill: #fff"
         id="path659" />
    </g>
    <g
       id="g673">
      <path
         d="M440.72,407.91h3.89V398h-3v-1.14a9.67,9.67,0,0,0,3.47-1h1.31v12h3.51v1.47h-9.16Z"
         transform="translate(-17.34 -94.46)"
         style="fill: #fff"
         id="path663" />
      <path
         d="M456,407.83a1.72,1.72,0,1,1,1.71,1.8A1.71,1.71,0,0,1,456,407.83Z"
         transform="translate(-17.34 -94.46)"
         style="fill: #fff"
         id="path665" />
      <path
         d="M466.11,407.91H470V398h-3v-1.14a9.6,9.6,0,0,0,3.47-1h1.31v12h3.52v1.47h-9.17Z"
         transform="translate(-17.34 -94.46)"
         style="fill: #fff"
         id="path667" />
      <path
         d="M481.39,407.83a1.72,1.72,0,1,1,3.43,0,1.72,1.72,0,1,1-3.43,0Z"
         transform="translate(-17.34 -94.46)"
         style="fill: #fff"
         id="path669" />
      <path
         d="M490.66,407.72l.89-1.14a5.45,5.45,0,0,0,3.87,1.59c1.85,0,3.22-.95,3.22-2.46s-1.35-2.68-4.89-2.68v-1.34c3.2,0,4.43-1.1,4.43-2.52s-1.13-2.11-2.76-2.11a5.11,5.11,0,0,0-3.32,1.35l-.93-1.1a6.56,6.56,0,0,1,4.32-1.69c2.54,0,4.46,1.25,4.46,3.43,0,1.63-1.2,2.66-2.87,3.21v.09c1.79.38,3.34,1.56,3.34,3.43,0,2.39-2.2,3.85-4.89,3.85A6.61,6.61,0,0,1,490.66,407.72Z"
         transform="translate(-17.34 -94.46)"
         style="fill: #fff"
         id="path671" />
    </g>
    <g
       id="g685">
      <path
         d="M270.88,408.63h3.89v-9.9h-3v-1.14a9.87,9.87,0,0,0,3.48-1h1.31v12H280v1.46h-9.16Z"
         transform="translate(-17.34 -94.46)"
         style="fill: #fff"
         id="path675" />
      <path
         d="M286.16,408.55a1.71,1.71,0,1,1,1.71,1.8A1.71,1.71,0,0,1,286.16,408.55Z"
         transform="translate(-17.34 -94.46)"
         style="fill: #fff"
         id="path677" />
      <path
         d="M296.27,408.63h3.9v-9.9h-3v-1.14a9.81,9.81,0,0,0,3.47-1h1.31v12h3.52v1.46h-9.17Z"
         transform="translate(-17.34 -94.46)"
         style="fill: #fff"
         id="path679" />
      <path
         d="M311.55,408.55a1.72,1.72,0,1,1,1.72,1.8A1.71,1.71,0,0,1,311.55,408.55Z"
         transform="translate(-17.34 -94.46)"
         style="fill: #fff"
         id="path681" />
      <path
         d="M327.4,400.8c0-.74.07-1.65.11-2.39h-.11c-.44.66-.93,1.31-1.37,2L322.39,405h8.76v1.42H320.44v-1.16l6.73-8.62h1.88v13.5H327.4Z"
         transform="translate(-17.34 -94.46)"
         style="fill: #fff"
         id="path683" />
    </g>
    <g
       id="g697">
      <path
         d="M99.79,407.63h3.9v-9.9h-3v-1.14a9.74,9.74,0,0,0,3.47-1h1.31v12H109v1.46H99.79Z"
         transform="translate(-17.34 -94.46)"
         style="fill: #fff"
         id="path687" />
      <path
         d="M115.07,407.55a1.72,1.72,0,1,1,3.43,0,1.72,1.72,0,1,1-3.43,0Z"
         transform="translate(-17.34 -94.46)"
         style="fill: #fff"
         id="path689" />
      <path
         d="M125.19,407.63h3.89v-9.9h-3v-1.14a9.87,9.87,0,0,0,3.47-1h1.31v12h3.51v1.46h-9.16Z"
         transform="translate(-17.34 -94.46)"
         style="fill: #fff"
         id="path691" />
      <path
         d="M140.47,407.55a1.72,1.72,0,1,1,1.71,1.8A1.71,1.71,0,0,1,140.47,407.55Z"
         transform="translate(-17.34 -94.46)"
         style="fill: #fff"
         id="path693" />
      <path
         d="M149.72,407.51l.86-1.17a5.36,5.36,0,0,0,3.81,1.55,3.13,3.13,0,0,0,3.41-3.07c0-1.86-1.31-2.94-3.3-2.94a5,5,0,0,0-2.75.8l-.93-.59.44-6.5h7.64v1.53h-6.09l-.36,4a5.89,5.89,0,0,1,2.49-.55c2.59,0,4.64,1.32,4.64,4.24s-2.41,4.57-5,4.57A6.76,6.76,0,0,1,149.72,407.51Z"
         transform="translate(-17.34 -94.46)"
         style="fill: #fff"
         id="path695" />
    </g>
    <g
       id="g709">
      <path
         d="M99.79,513.39h3.9v-9.9h-3v-1.14a9.74,9.74,0,0,0,3.47-1h1.31v12H109v1.46H99.79Z"
         transform="translate(-17.34 -94.46)"
         style="fill: #fff"
         id="path699" />
      <path
         d="M115.07,513.31a1.72,1.72,0,1,1,3.43,0,1.72,1.72,0,1,1-3.43,0Z"
         transform="translate(-17.34 -94.46)"
         style="fill: #fff"
         id="path701" />
      <path
         d="M125.19,513.39h3.89v-9.9h-3v-1.14a9.87,9.87,0,0,0,3.47-1h1.31v12h3.51v1.46h-9.16Z"
         transform="translate(-17.34 -94.46)"
         style="fill: #fff"
         id="path703" />
      <path
         d="M140.47,513.31a1.72,1.72,0,1,1,1.71,1.8A1.71,1.71,0,0,1,140.47,513.31Z"
         transform="translate(-17.34 -94.46)"
         style="fill: #fff"
         id="path705" />
      <path
         d="M150.16,508.61c0-5.42,2.71-7.51,5.65-7.51a5.36,5.36,0,0,1,3.77,1.44l-1,1.1a4,4,0,0,0-2.69-1.08c-2.2,0-4.11,1.54-4.11,6.05,0,3.32,1.27,5.12,3.51,5.12a2.8,2.8,0,0,0,2.84-3,2.57,2.57,0,0,0-2.86-2.86,4.71,4.71,0,0,0-3.53,1.91l-.06-1.38a5.7,5.7,0,0,1,3.91-1.84c2.5,0,4.21,1.4,4.21,4.17a4.36,4.36,0,0,1-4.51,4.34C152.38,515.11,150.16,513,150.16,508.61Z"
         transform="translate(-17.34 -94.46)"
         style="fill: #fff"
         id="path707" />
    </g>
    <g
       id="g721">
      <path
         d="M270.88,513.39h3.89v-9.9h-3v-1.14a9.87,9.87,0,0,0,3.48-1h1.31v12H280v1.46h-9.16Z"
         transform="translate(-17.34 -94.46)"
         style="fill: #fff"
         id="path711" />
      <path
         d="M286.16,513.31a1.71,1.71,0,1,1,1.71,1.8A1.71,1.71,0,0,1,286.16,513.31Z"
         transform="translate(-17.34 -94.46)"
         style="fill: #fff"
         id="path713" />
      <path
         d="M296.27,513.39h3.9v-9.9h-3v-1.14a9.81,9.81,0,0,0,3.47-1h1.31v12h3.52v1.46h-9.17Z"
         transform="translate(-17.34 -94.46)"
         style="fill: #fff"
         id="path715" />
      <path
         d="M311.55,513.31a1.72,1.72,0,1,1,1.72,1.8A1.71,1.71,0,0,1,311.55,513.31Z"
         transform="translate(-17.34 -94.46)"
         style="fill: #fff"
         id="path717" />
      <path
         d="M328.86,502.88H321.1v-1.53h9.77v1.08c-3.57,4.09-4.44,7.13-4.65,12.42h-1.84A18,18,0,0,1,328.86,502.88Z"
         transform="translate(-17.34 -94.46)"
         style="fill: #fff"
         id="path719" />
    </g>
    <g
       id="g733">
      <path
         d="M440.72,513.58h3.89v-9.91h-3v-1.14a9.89,9.89,0,0,0,3.47-1h1.31v12h3.51V515h-9.16Z"
         transform="translate(-17.34 -94.46)"
         style="fill: #fff"
         id="path723" />
      <path
         d="M456,513.5a1.72,1.72,0,1,1,1.71,1.79A1.71,1.71,0,0,1,456,513.5Z"
         transform="translate(-17.34 -94.46)"
         style="fill: #fff"
         id="path725" />
      <path
         d="M466.11,513.58H470v-9.91h-3v-1.14a9.83,9.83,0,0,0,3.47-1h1.31v12h3.52V515h-9.17Z"
         transform="translate(-17.34 -94.46)"
         style="fill: #fff"
         id="path727" />
      <path
         d="M481.39,513.5a1.72,1.72,0,1,1,3.43,0,1.72,1.72,0,1,1-3.43,0Z"
         transform="translate(-17.34 -94.46)"
         style="fill: #fff"
         id="path729" />
      <path
         d="M490.9,511.59c0-1.86,1.43-2.92,2.89-3.6v-.08a3.8,3.8,0,0,1-2.05-3.16c0-2.07,1.76-3.47,4.17-3.47,2.65,0,4.19,1.51,4.19,3.6a4.24,4.24,0,0,1-2.05,3.22v.08c1.48.74,2.64,1.59,2.64,3.52s-1.75,3.59-4.84,3.59S490.9,513.73,490.9,511.59Zm8.12,0c0-1.86-1.88-2.35-4.23-3.13-1.31.7-2.31,1.57-2.31,2.92s1.34,2.56,3.41,2.56S499,513,499,511.63Zm-.44-6.66a2.4,2.4,0,0,0-2.71-2.37,2.23,2.23,0,0,0-2.52,2.15c0,1.61,1.55,2.29,3.56,2.92A3.41,3.41,0,0,0,498.58,505Z"
         transform="translate(-17.34 -94.46)"
         style="fill: #fff"
         id="path731" />
    </g>
  </g>
</svg>
