<?xml version="1.0" encoding="utf-8"?>
<!-- Generator: Adobe Illustrator 23.0.0, SVG Export Plug-In . SVG Version: 6.00 Build 0)  -->
<svg version="1.1" id="Livello_1" xmlns="http://www.w3.org/2000/svg" xmlns:xlink="http://www.w3.org/1999/xlink" x="0px" y="0px"
	 viewBox="0 0 113.4 178.6" style="enable-background:new 0 0 113.4 178.6;" xml:space="preserve">
<style type="text/css">
	.st0{fill:#202224;}
	.st1{fill:#010101;stroke:#231F20;stroke-miterlimit:10;}
	.st2{fill:none;stroke:#2C7397;stroke-miterlimit:10;}
	.st3{fill:#010101;}
	.st4{fill:none;stroke:#FFFFFF;stroke-width:3;stroke-miterlimit:10;}
	.st5{fill:#FFFFFF;}
	.st6{font-family:'ArialMT';}
	.st7{font-size:20px;}
	.st8{letter-spacing:1;}
	.st9{font-size:14px;}
</style>
<g id="sfondogrigio" transform="translate(3.0167348,-24.995803)">
	<rect id="rect374" x="-2.1" y="26" class="st0" width="110.9" height="177.5"/>
</g>
<g id="panelsolar">
	<g id="panel1">
		<g id="g404">
			<rect id="colorblu1" x="4" y="4.4" class="st1" width="104.8" height="134.3"/>
			<line id="line378" class="st2" x1="4" y1="123.7" x2="108.7" y2="123.7"/>
			<line id="line380" class="st2" x1="4" y1="108.8" x2="108.7" y2="108.8"/>
			<line id="line382" class="st2" x1="4" y1="93.9" x2="108.7" y2="93.9"/>
			<line id="line384" class="st2" x1="4" y1="79" x2="108.7" y2="79"/>
			<line id="line386" class="st2" x1="4" y1="64.1" x2="108.7" y2="64.1"/>
			<line id="line388" class="st2" x1="4" y1="49.1" x2="108.7" y2="49.1"/>
			<line id="line390" class="st2" x1="4" y1="34.2" x2="108.7" y2="34.2"/>
			<line id="line392" class="st2" x1="4" y1="19.3" x2="108.7" y2="19.3"/>
			<line id="line394" class="st2" x1="91.3" y1="4.4" x2="91.3" y2="138.7"/>
			<line id="line396" class="st2" x1="73.8" y1="4.4" x2="73.8" y2="138.7"/>
			<line id="line398" class="st2" x1="56.3" y1="4.4" x2="56.3" y2="138.7"/>
			<line id="line400" class="st2" x1="38.9" y1="4.4" x2="38.9" y2="138.7"/>
			<line id="line402" class="st2" x1="21.4" y1="4.4" x2="21.4" y2="138.7">
			</line>
		</g>
		<rect id="rect406" x="4.1" y="138.5" class="st3" width="104.7" height="36.2"/>
		<rect id="rect408" x="4.1" y="4.3" class="st4" width="104.7" height="170.4"/>
		<text transform="matrix(1 0 0 1 17.695 77.931)" class="st5 st6 st7 st8">000.00w</text>
		<text transform="matrix(1 0 0 1 20.9745 106.756)" class="st5 st6 st9">000.00wh</text>
	</g>
</g>
<g id="nomepanel">
	<g id="name">
		<path id="path639" class="st5" d="M27.2,163.5h3.9v-9.9h-3v-1.1c1.2-0.1,2.4-0.5,3.5-1h1.3v12h3.5v1.5h-9.2V163.5z"/>
		<path id="path641" class="st5" d="M42.5,163.4c0-0.9,0.8-1.7,1.8-1.6c0.9,0,1.7,0.8,1.6,1.8c0,0.9-0.8,1.6-1.7,1.6
			c-0.9,0-1.7-0.8-1.7-1.7C42.5,163.4,42.5,163.4,42.5,163.4z"/>
		<path id="path643" class="st5" d="M52.7,163.5h3.9v-9.9h-3v-1.1c1.2-0.1,2.4-0.5,3.5-1h1.3v12h3.5v1.5h-9.2
			C52.7,165,52.7,163.5,52.7,163.5z"/>
		<path id="path645" class="st5" d="M67.9,163.4c0-0.9,0.8-1.7,1.8-1.6c0.9,0,1.7,0.8,1.6,1.8c0,0.9-0.8,1.6-1.7,1.6
			C68.7,165.2,67.9,164.4,67.9,163.4L67.9,163.4z"/>
		<path id="path647" class="st5" d="M78,163.5h3.9v-9.9h-3v-1.1c1.2-0.1,2.4-0.5,3.5-1h1.3v12h3.5v1.5H78V163.5z"/>
	</g>
</g>
</svg>
